<svg width="56" height="56" viewBox="0 0 56 56" fill="none" xmlns="http://www.w3.org/2000/svg">
<mask id="mask0_361_1061" style="mask-type:alpha" maskUnits="userSpaceOnUse" x="0" y="0" width="56" height="56">
<rect width="56" height="56" fill="#D9D9D9"/>
</mask>
<g mask="url(#mask0_361_1061)">
<path d="M30.5528 55.2634L7.52271 46.8811C3.37089 45.37 1.23019 40.7792 2.74133 36.6274L12.4337 9.99794L32.4889 0.180954L48.4816 6.0018C52.6334 7.51294 54.775 12.104 53.2638 16.2558L40.8065 50.482C39.2954 54.6338 34.7047 56.7745 30.5528 55.2634Z" fill="#2A324B"/>
<g filter="url(#filter0_d_361_1061)">
<path d="M12.4288 9.99753L32.4844 0.180664L29.0354 9.65676C27.902 12.7706 24.459 14.3762 21.3451 13.2428L12.4288 9.99753Z" fill="url(#paint0_linear_361_1061)"/>
</g>
<mask id="mask1_361_1061" style="mask-type:alpha" maskUnits="userSpaceOnUse" x="2" y="0" width="52" height="56">
<path d="M30.5489 55.2639L7.5188 46.8816C3.36698 45.3705 1.22628 40.7797 2.73742 36.6279L12.4298 9.99843L32.485 0.181442L48.4777 6.00229C52.6295 7.51343 54.7711 12.1045 53.2599 16.2563L40.8026 50.4825C39.2915 54.6343 34.7007 56.775 30.5489 55.2639Z" fill="#149C8E"/>
</mask>
<g mask="url(#mask1_361_1061)">
<path d="M20.0118 19.0307C20.0118 19.5023 19.9187 19.9429 19.7325 20.3524C19.5588 20.762 19.3168 21.1219 19.0065 21.4322C18.6962 21.73 18.3301 21.972 17.9082 22.1582C17.4986 22.3319 17.058 22.4188 16.5864 22.4188C16.1148 22.4188 15.668 22.3319 15.2461 22.1582C14.8365 21.972 14.4766 21.73 14.1663 21.4322C13.8685 21.1219 13.6265 20.762 13.4403 20.3524C13.2666 19.9429 13.1797 19.5023 13.1797 19.0307C13.1797 18.5715 13.2666 18.1371 13.4403 17.7276C13.6265 17.3056 13.8685 16.9457 14.1663 16.6478C14.4766 16.3376 14.8365 16.0956 15.2461 15.9218C15.668 15.7357 16.1148 15.6426 16.5864 15.6426C17.058 15.6426 17.4986 15.7357 17.9082 15.9218C18.3301 16.0956 18.6962 16.3376 19.0065 16.6478C19.3168 16.9457 19.5588 17.3056 19.7325 17.7276C19.9187 18.1371 20.0118 18.5715 20.0118 19.0307ZM19.1368 44.3857H14.0174V24.448H19.1368V44.3857Z" fill="white"/>
<path d="M27.3472 44.3857H22.2651V24.448H23.4937L25.1692 26.384C25.9883 25.6394 26.9129 25.0685 27.9429 24.6714C28.9854 24.2618 30.0714 24.057 31.2008 24.057C32.417 24.057 33.565 24.2928 34.6447 24.7644C35.7245 25.2236 36.6677 25.8628 37.4744 26.6819C38.2811 27.4886 38.914 28.438 39.3732 29.5301C39.8448 30.6099 40.0806 31.7641 40.0806 32.9927V44.3857H34.9984V32.9927C34.9984 32.4715 34.8991 31.9813 34.7006 31.5221C34.502 31.0505 34.229 30.6409 33.8815 30.2934C33.534 29.9459 33.1306 29.6729 32.6714 29.4743C32.2122 29.2757 31.722 29.1764 31.2008 29.1764C30.6671 29.1764 30.1645 29.2757 29.6929 29.4743C29.2213 29.6729 28.8117 29.9459 28.4642 30.2934C28.1167 30.6409 27.8437 31.0505 27.6451 31.5221C27.4465 31.9813 27.3472 32.4715 27.3472 32.9927V44.3857Z" fill="white"/>
<path d="M68.4537 44.3857L60.8583 24.448H66.6479L71.0041 36.8835L75.3416 24.448H81.1498L73.5545 44.3857H68.4537Z" fill="white"/>
<path d="M100.995 34.24C100.995 35.7293 100.728 37.1193 100.195 38.41C99.6611 39.6883 98.9351 40.799 98.0167 41.7423C97.0983 42.6731 96.0186 43.4115 94.7775 43.9576C93.5488 44.4912 92.2271 44.7581 90.8123 44.7581C89.4099 44.7581 88.0881 44.4912 86.8471 43.9576C85.6184 43.4115 84.5387 42.6731 83.6079 41.7423C82.6895 40.799 81.9635 39.6883 81.4298 38.41C80.8961 37.1193 80.6293 35.7293 80.6293 34.24C80.6293 32.7259 80.8961 31.3235 81.4298 30.0328C81.9635 28.7421 82.6895 27.6313 83.6079 26.7005C84.5387 25.7573 85.6184 25.0189 86.8471 24.4852C88.0881 23.9515 89.4099 23.6847 90.8123 23.6847C92.2271 23.6847 93.5488 23.9391 94.7775 24.448C96.0186 24.9444 97.0983 25.658 98.0167 26.5888C98.9351 27.5072 99.6611 28.618 100.195 29.9211C100.728 31.2118 100.995 32.6514 100.995 34.24ZM95.8758 34.24C95.8758 33.4209 95.7393 32.6825 95.4663 32.0247C95.2057 31.3545 94.8458 30.7836 94.3866 30.312C93.9274 29.828 93.3875 29.4619 92.767 29.2137C92.1588 28.953 91.5073 28.8227 90.8123 28.8227C90.1173 28.8227 89.4595 28.953 88.839 29.2137C88.2309 29.4619 87.6972 29.828 87.238 30.312C86.7912 30.7836 86.4375 31.3545 86.1769 32.0247C85.9163 32.6825 85.7859 33.4209 85.7859 34.24C85.7859 35.0095 85.9163 35.7231 86.1769 36.3808C86.4375 37.0386 86.7912 37.6095 87.238 38.0935C87.6972 38.5775 88.2309 38.9623 88.839 39.2477C89.4595 39.5207 90.1173 39.6573 90.8123 39.6573C91.5073 39.6573 92.1588 39.527 92.767 39.2663C93.3875 39.0057 93.9274 38.6396 94.3866 38.168C94.8458 37.6964 95.2057 37.1255 95.4663 36.4553C95.7393 35.7851 95.8758 35.0467 95.8758 34.24Z" fill="white"/>
<path d="M112.892 44.3857C111.663 44.3857 110.509 44.1561 109.429 43.6969C108.349 43.2253 107.4 42.5862 106.581 41.7795C105.774 40.9604 105.135 40.011 104.663 38.9312C104.204 37.8515 103.975 36.6973 103.975 35.4687V29.5488H101.499V24.4852H103.975V16.5175H109.038V24.4852H116.745V29.5488H109.038V35.4687C109.038 36.0023 109.137 36.5049 109.336 36.9766C109.535 37.4358 109.808 37.8391 110.155 38.1866C110.503 38.5341 110.912 38.8133 111.384 39.0243C111.855 39.2229 112.358 39.3222 112.892 39.3222H116.745V44.3857H112.892Z" fill="white"/>
<path d="M138.117 34.24C138.117 35.7293 137.85 37.1193 137.317 38.41C136.783 39.6883 136.057 40.799 135.139 41.7423C134.22 42.6731 133.14 43.4115 131.899 43.9576C130.671 44.4912 129.349 44.7581 127.934 44.7581C126.532 44.7581 125.21 44.4912 123.969 43.9576C122.74 43.4115 121.661 42.6731 120.73 41.7423C119.811 40.799 119.085 39.6883 118.552 38.41C118.018 37.1193 117.751 35.7293 117.751 34.24C117.751 32.7259 118.018 31.3235 118.552 30.0328C119.085 28.7421 119.811 27.6313 120.73 26.7005C121.661 25.7573 122.74 25.0189 123.969 24.4852C125.21 23.9515 126.532 23.6847 127.934 23.6847C129.349 23.6847 130.671 23.9391 131.899 24.448C133.14 24.9444 134.22 25.658 135.139 26.5888C136.057 27.5072 136.783 28.618 137.317 29.9211C137.85 31.2118 138.117 32.6514 138.117 34.24ZM132.998 34.24C132.998 33.4209 132.861 32.6825 132.588 32.0247C132.328 31.3545 131.968 30.7836 131.508 30.312C131.049 29.828 130.509 29.4619 129.889 29.2137C129.281 28.953 128.629 28.8227 127.934 28.8227C127.239 28.8227 126.581 28.953 125.961 29.2137C125.353 29.4619 124.819 29.828 124.36 30.312C123.913 30.7836 123.559 31.3545 123.299 32.0247C123.038 32.6825 122.908 33.4209 122.908 34.24C122.908 35.0095 123.038 35.7231 123.299 36.3808C123.559 37.0386 123.913 37.6095 124.36 38.0935C124.819 38.5775 125.353 38.9623 125.961 39.2477C126.581 39.5207 127.239 39.6573 127.934 39.6573C128.629 39.6573 129.281 39.527 129.889 39.2663C130.509 39.0057 131.049 38.6396 131.508 38.168C131.968 37.6964 132.328 37.1255 132.588 36.4553C132.861 35.7851 132.998 35.0467 132.998 34.24Z" fill="white"/>
<path d="M159.433 34.24C159.433 35.7293 159.166 37.1193 158.633 38.41C158.099 39.6883 157.373 40.799 156.455 41.7423C155.536 42.6731 154.457 43.4115 153.215 43.9576C151.987 44.4912 150.665 44.7581 149.25 44.7581C147.848 44.7581 146.526 44.4912 145.285 43.9576C144.056 43.4115 142.977 42.6731 142.046 41.7423C141.127 40.799 140.401 39.6883 139.868 38.41C139.334 37.1193 139.067 35.7293 139.067 34.24C139.067 32.7259 139.334 31.3235 139.868 30.0328C140.401 28.7421 141.127 27.6313 142.046 26.7005C142.977 25.7573 144.056 25.0189 145.285 24.4852C146.526 23.9515 147.848 23.6847 149.25 23.6847C150.665 23.6847 151.987 23.9391 153.215 24.448C154.457 24.9444 155.536 25.658 156.455 26.5888C157.373 27.5072 158.099 28.618 158.633 29.9211C159.166 31.2118 159.433 32.6514 159.433 34.24ZM154.314 34.24C154.314 33.4209 154.177 32.6825 153.904 32.0247C153.644 31.3545 153.284 30.7836 152.825 30.312C152.365 29.828 151.825 29.4619 151.205 29.2137C150.597 28.953 149.945 28.8227 149.25 28.8227C148.555 28.8227 147.897 28.953 147.277 29.2137C146.669 29.4619 146.135 29.828 145.676 30.312C145.229 30.7836 144.875 31.3545 144.615 32.0247C144.354 32.6825 144.224 33.4209 144.224 34.24C144.224 35.0095 144.354 35.7231 144.615 36.3808C144.875 37.0386 145.229 37.6095 145.676 38.0935C146.135 38.5775 146.669 38.9623 147.277 39.2477C147.897 39.5207 148.555 39.6573 149.25 39.6573C149.945 39.6573 150.597 39.527 151.205 39.2663C151.825 39.0057 152.365 38.6396 152.825 38.168C153.284 37.6964 153.644 37.1255 153.904 36.4553C154.177 35.7851 154.314 35.0467 154.314 34.24Z" fill="white"/>
<path d="M166.601 44.3857H161.482V16.5175H166.601V44.3857Z" fill="white"/>
<path d="M180.676 44.3857H169.059V39.3222H180.676C181.023 39.3222 181.321 39.1981 181.569 38.9499C181.817 38.7016 181.942 38.4038 181.942 38.0563C181.942 37.6964 181.817 37.4606 181.569 37.3489C181.321 37.2372 181.023 37.1813 180.676 37.1813H175.389C174.508 37.1813 173.682 37.0138 172.913 36.6787C172.143 36.3436 171.473 35.8906 170.902 35.3197C170.331 34.7364 169.878 34.06 169.543 33.2906C169.221 32.5211 169.059 31.6958 169.059 30.8146C169.059 29.9335 169.221 29.1082 169.543 28.3387C169.878 27.5693 170.331 26.8991 170.902 26.3282C171.473 25.7573 172.143 25.3105 172.913 24.9878C173.682 24.6527 174.508 24.4852 175.389 24.4852H185.683V29.5488H175.389C175.041 29.5488 174.743 29.6729 174.495 29.9211C174.247 30.1693 174.123 30.4671 174.123 30.8146C174.123 31.1746 174.247 31.4848 174.495 31.7454C174.743 31.9937 175.041 32.1178 175.389 32.1178H180.676C181.544 32.1178 182.363 32.2667 183.133 32.5646C183.902 32.85 184.573 33.2533 185.143 33.7746C185.714 34.2958 186.167 34.9226 186.502 35.6548C186.838 36.387 187.005 37.1875 187.005 38.0563C187.005 38.9374 186.838 39.7628 186.502 40.5322C186.167 41.2893 185.714 41.9594 185.143 42.5427C184.573 43.1136 183.902 43.5666 183.133 43.9017C182.363 44.2244 181.544 44.3857 180.676 44.3857Z" fill="white"/>
</g>
</g>
<defs>
<filter id="filter0_d_361_1061" x="8.42969" y="0.180664" width="28.0547" height="21.4258" filterUnits="userSpaceOnUse" color-interpolation-filters="sRGB">
<feFlood flood-opacity="0" result="BackgroundImageFix"/>
<feColorMatrix in="SourceAlpha" type="matrix" values="0 0 0 0 0 0 0 0 0 0 0 0 0 0 0 0 0 0 127 0" result="hardAlpha"/>
<feOffset dy="4"/>
<feGaussianBlur stdDeviation="2"/>
<feComposite in2="hardAlpha" operator="out"/>
<feColorMatrix type="matrix" values="0 0 0 0 0 0 0 0 0 0 0 0 0 0 0 0 0 0 0.1 0"/>
<feBlend mode="normal" in2="BackgroundImageFix" result="effect1_dropShadow_361_1061"/>
<feBlend mode="normal" in="SourceGraphic" in2="effect1_dropShadow_361_1061" result="shape"/>
</filter>
<linearGradient id="paint0_linear_361_1061" x1="27.1228" y1="-1.77079" x2="19.9509" y2="17.9337" gradientUnits="userSpaceOnUse">
<stop stop-color="#FFB840"/>
<stop offset="1" stop-color="#FFB840"/>
</linearGradient>
</defs>
</svg>
