<svg width="24" height="24" viewBox="0 0 24 24" fill="none" xmlns="http://www.w3.org/2000/svg">
<path d="M22.8753 21.7222C21.266 18.9604 18.786 16.9801 15.8917 16.0413C17.3233 15.1954 18.4356 13.9063 19.0577 12.3721C19.6799 10.8379 19.7774 9.14335 19.3355 7.54877C18.8935 5.95418 17.9365 4.54769 16.6113 3.54529C15.2861 2.54289 13.6661 2 12 2C10.3339 2 8.71389 2.54289 7.38871 3.54529C6.06353 4.54769 5.10647 5.95418 4.66452 7.54877C4.22256 9.14335 4.32013 10.8379 4.94226 12.3721C5.56438 13.9063 6.67666 15.1954 8.10827 16.0413C5.21405 16.9791 2.73404 18.9594 1.12473 21.7222C1.06571 21.8177 1.02656 21.924 1.0096 22.0348C0.992636 22.1456 0.998196 22.2586 1.02595 22.3672C1.05371 22.4758 1.1031 22.5778 1.17121 22.6672C1.23932 22.7565 1.32477 22.8314 1.42252 22.8875C1.52027 22.9435 1.62834 22.9796 1.74035 22.9935C1.85236 23.0074 1.96605 22.9989 2.0747 22.9685C2.18335 22.9381 2.28476 22.8864 2.37296 22.8165C2.46116 22.7465 2.53435 22.6598 2.58822 22.5613C4.57899 19.1461 8.09771 17.107 12 17.107C15.9023 17.107 19.421 19.1461 21.4118 22.5613C21.4657 22.6598 21.5388 22.7465 21.627 22.8165C21.7152 22.8864 21.8167 22.9381 21.9253 22.9685C22.034 22.9989 22.1476 23.0074 22.2596 22.9935C22.3717 22.9796 22.4797 22.9435 22.5775 22.8875C22.6752 22.8314 22.7607 22.7565 22.8288 22.6672C22.8969 22.5778 22.9463 22.4758 22.974 22.3672C23.0018 22.2586 23.0074 22.1456 22.9904 22.0348C22.9734 21.924 22.9343 21.8177 22.8753 21.7222ZM6.08263 9.55494C6.08263 8.3932 6.42968 7.25755 7.07989 6.29161C7.7301 5.32566 8.65426 4.57279 9.73552 4.12821C10.8168 3.68364 12.0066 3.56732 13.1544 3.79396C14.3023 4.0206 15.3567 4.58003 16.1842 5.4015C17.0118 6.22298 17.5753 7.26959 17.8037 8.40901C18.032 9.54842 17.9148 10.7295 17.4669 11.8028C17.0191 12.8761 16.2606 13.7934 15.2875 14.4389C14.3144 15.0843 13.1703 15.4288 12 15.4288C10.4311 15.4271 8.927 14.8077 7.81764 13.7065C6.70829 12.6053 6.08431 11.1123 6.08263 9.55494Z" fill="#19CAAA"/>
</svg>
