<svg width="24" height="24" viewBox="0 0 24 24" fill="none" xmlns="http://www.w3.org/2000/svg">
<path d="M12.9231 11.0833V22.0833C12.9231 22.3264 12.8258 22.5596 12.6527 22.7315C12.4796 22.9034 12.2448 23 12 23C11.7552 23 11.5204 22.9034 11.3473 22.7315C11.1742 22.5596 11.0769 22.3264 11.0769 22.0833V11.0833C11.0769 10.8402 11.1742 10.6071 11.3473 10.4352C11.5204 10.2632 11.7552 10.1667 12 10.1667C12.2448 10.1667 12.4796 10.2632 12.6527 10.4352C12.8258 10.6071 12.9231 10.8402 12.9231 11.0833ZM20.3077 19.3333C20.0629 19.3333 19.8281 19.4299 19.655 19.6018C19.4819 19.7737 19.3846 20.0069 19.3846 20.25V22.0833C19.3846 22.3264 19.4819 22.5596 19.655 22.7315C19.8281 22.9034 20.0629 23 20.3077 23C20.5525 23 20.7873 22.9034 20.9604 22.7315C21.1335 22.5596 21.2308 22.3264 21.2308 22.0833V20.25C21.2308 20.0069 21.1335 19.7737 20.9604 19.6018C20.7873 19.4299 20.5525 19.3333 20.3077 19.3333ZM23.0769 15.6667H21.2308V1.91667C21.2308 1.67355 21.1335 1.44039 20.9604 1.26849C20.7873 1.09658 20.5525 1 20.3077 1C20.0629 1 19.8281 1.09658 19.655 1.26849C19.4819 1.44039 19.3846 1.67355 19.3846 1.91667V15.6667H17.5385C17.2936 15.6667 17.0589 15.7632 16.8857 15.9352C16.7126 16.1071 16.6154 16.3402 16.6154 16.5833C16.6154 16.8264 16.7126 17.0596 16.8857 17.2315C17.0589 17.4034 17.2936 17.5 17.5385 17.5H23.0769C23.3217 17.5 23.5565 17.4034 23.7296 17.2315C23.9027 17.0596 24 16.8264 24 16.5833C24 16.3402 23.9027 16.1071 23.7296 15.9352C23.5565 15.7632 23.3217 15.6667 23.0769 15.6667ZM3.69231 15.6667C3.44749 15.6667 3.2127 15.7632 3.03959 15.9352C2.86648 16.1071 2.76923 16.3402 2.76923 16.5833V22.0833C2.76923 22.3264 2.86648 22.5596 3.03959 22.7315C3.2127 22.9034 3.44749 23 3.69231 23C3.93712 23 4.17191 22.9034 4.34502 22.7315C4.51813 22.5596 4.61538 22.3264 4.61538 22.0833V16.5833C4.61538 16.3402 4.51813 16.1071 4.34502 15.9352C4.17191 15.7632 3.93712 15.6667 3.69231 15.6667ZM6.46154 12H4.61538V1.91667C4.61538 1.67355 4.51813 1.44039 4.34502 1.26849C4.17191 1.09658 3.93712 1 3.69231 1C3.44749 1 3.2127 1.09658 3.03959 1.26849C2.86648 1.44039 2.76923 1.67355 2.76923 1.91667V12H0.923077C0.678262 12 0.443473 12.0966 0.270363 12.2685C0.0972524 12.4404 0 12.6736 0 12.9167C0 13.1598 0.0972524 13.3929 0.270363 13.5648C0.443473 13.7368 0.678262 13.8333 0.923077 13.8333H6.46154C6.70635 13.8333 6.94114 13.7368 7.11425 13.5648C7.28736 13.3929 7.38462 13.1598 7.38462 12.9167C7.38462 12.6736 7.28736 12.4404 7.11425 12.2685C6.94114 12.0966 6.70635 12 6.46154 12ZM14.7692 6.5H12.9231V1.91667C12.9231 1.67355 12.8258 1.44039 12.6527 1.26849C12.4796 1.09658 12.2448 1 12 1C11.7552 1 11.5204 1.09658 11.3473 1.26849C11.1742 1.44039 11.0769 1.67355 11.0769 1.91667V6.5H9.23077C8.98595 6.5 8.75117 6.59658 8.57806 6.76849C8.40494 6.94039 8.30769 7.17355 8.30769 7.41667C8.30769 7.65978 8.40494 7.89294 8.57806 8.06485C8.75117 8.23676 8.98595 8.33333 9.23077 8.33333H14.7692C15.014 8.33333 15.2488 8.23676 15.4219 8.06485C15.5951 7.89294 15.6923 7.65978 15.6923 7.41667C15.6923 7.17355 15.5951 6.94039 15.4219 6.76849C15.2488 6.59658 15.014 6.5 14.7692 6.5Z" fill="#19CAAA"/>
</svg>
