<svg width="24" height="24" viewBox="0 0 24 24" fill="none" xmlns="http://www.w3.org/2000/svg">
<g clip-path="url(#clip0_361_592)">
<path d="M12 0C9.62663 0 7.30655 0.703788 5.33316 2.02236C3.35977 3.34094 1.8217 5.21508 0.913451 7.4078C0.00519941 9.60051 -0.232441 12.0133 0.230582 14.3411C0.693605 16.6689 1.83649 18.807 3.51472 20.4853C5.19295 22.1635 7.33115 23.3064 9.65892 23.7694C11.9867 24.2324 14.3995 23.9948 16.5922 23.0865C18.7849 22.1783 20.6591 20.6402 21.9776 18.6668C23.2962 16.6934 24 14.3734 24 12C23.9966 8.81843 22.7313 5.76814 20.4816 3.51843C18.2319 1.26872 15.1816 0.00335979 12 0ZM12 22.1538C9.99176 22.1538 8.02862 21.5583 6.35883 20.4426C4.68904 19.3269 3.38759 17.7411 2.61907 15.8857C1.85055 14.0303 1.64947 11.9887 2.04126 10.0191C2.43305 8.04943 3.40011 6.24019 4.82015 4.82015C6.24019 3.40011 8.04943 2.43305 10.0191 2.04126C11.9887 1.64947 14.0303 1.85055 15.8857 2.61907C17.7411 3.38759 19.3269 4.68903 20.4426 6.35882C21.5583 8.02861 22.1538 9.99176 22.1538 12C22.1508 14.692 21.08 17.2729 19.1765 19.1765C17.2729 21.08 14.692 22.1508 12 22.1538ZM6.46154 9.69231C6.46154 9.41845 6.54275 9.15075 6.69489 8.92306C6.84704 8.69536 7.06328 8.51789 7.31629 8.41309C7.56929 8.30829 7.84769 8.28087 8.11628 8.3343C8.38487 8.38772 8.63159 8.51959 8.82523 8.71323C9.01887 8.90688 9.15074 9.15359 9.20417 9.42218C9.25759 9.69077 9.23017 9.96917 9.12538 10.2222C9.02058 10.4752 8.84311 10.6914 8.61541 10.8436C8.38771 10.9957 8.12001 11.0769 7.84616 11.0769C7.47893 11.0769 7.12675 10.931 6.86709 10.6714C6.60742 10.4117 6.46154 10.0595 6.46154 9.69231ZM17.5385 9.69231C17.5385 9.96616 17.4573 10.2339 17.3051 10.4616C17.153 10.6893 16.9367 10.8667 16.6837 10.9715C16.4307 11.0763 16.1523 11.1037 15.8837 11.0503C15.6151 10.9969 15.3684 10.865 15.1748 10.6714C14.9811 10.4777 14.8493 10.231 14.7958 9.96243C14.7424 9.69384 14.7698 9.41544 14.8746 9.16244C14.9794 8.90943 15.1569 8.69318 15.3846 8.54104C15.6123 8.3889 15.88 8.30769 16.1538 8.30769C16.5211 8.30769 16.8733 8.45357 17.1329 8.71323C17.3926 8.9729 17.5385 9.32508 17.5385 9.69231ZM17.415 15.2308C16.2277 17.2835 14.2535 18.4615 12 18.4615C9.74654 18.4615 7.77347 17.2846 6.58616 15.2308C6.51937 15.1257 6.47452 15.0082 6.45432 14.8854C6.43411 14.7625 6.43897 14.6369 6.46859 14.5159C6.4982 14.395 6.55198 14.2813 6.62667 14.1818C6.70136 14.0822 6.79543 13.9987 6.90321 13.9364C7.01099 13.8741 7.13026 13.8342 7.25385 13.8192C7.37744 13.8042 7.50278 13.8143 7.62235 13.849C7.74191 13.8837 7.85322 13.9422 7.94959 14.0211C8.04595 14.0999 8.12537 14.1974 8.18308 14.3077C9.045 15.7973 10.3996 16.6154 12 16.6154C13.6004 16.6154 14.955 15.7962 15.8158 14.3077C15.9382 14.0956 16.1398 13.9409 16.3763 13.8775C16.6128 13.8141 16.8649 13.8472 17.0769 13.9696C17.289 14.092 17.4438 14.2937 17.5072 14.5302C17.5706 14.7667 17.5374 15.0187 17.415 15.2308Z" fill="#0ACBFC"/>
</g>
<defs>
<clipPath id="clip0_361_592">
<rect width="24" height="24" fill="white"/>
</clipPath>
</defs>
</svg>
