<svg width="24" height="24" viewBox="0 0 24 24" fill="none" xmlns="http://www.w3.org/2000/svg">
<path d="M20.3962 3.43751C18.162 1.23239 15.144 -0.00320643 11.9998 6.24934e-06H11.8763C8.71523 0.0324245 5.69466 1.30685 3.4709 3.54638C1.24713 5.78592 -0.000167301 8.80963 1.68314e-08 11.9606C1.68314e-08 16.9058 3.06687 21.0529 8.00294 22.7906C8.55967 22.9862 9.15535 23.046 9.74003 22.9648C10.3247 22.8836 10.8813 22.6639 11.3632 22.324C11.8451 21.9842 12.2382 21.5341 12.5096 21.0116C12.781 20.4891 12.9227 19.9093 12.9229 19.3209C12.9229 18.8329 13.1174 18.3648 13.4636 18.0198C13.8098 17.6747 14.2794 17.4808 14.769 17.4808H20.1008C20.9383 17.4849 21.7521 17.2033 22.4069 16.6828C23.0617 16.1623 23.5183 15.4342 23.7007 14.6195C23.9071 13.714 24.0073 12.7878 23.9996 11.8594C23.9878 10.2878 23.6633 8.73412 23.0447 7.28846C22.4262 5.8428 21.5259 4.53387 20.3962 3.43751ZM21.8962 14.2147C21.8045 14.6206 21.5766 14.9831 21.2501 15.2424C20.9237 15.5017 20.5182 15.6422 20.1008 15.6407H14.769C13.7897 15.6407 12.8506 16.0285 12.1582 16.7186C11.4657 17.4088 11.0767 18.3449 11.0767 19.3209C11.0763 19.6148 11.0052 19.9043 10.8695 20.1653C10.7338 20.4262 10.5373 20.6509 10.2965 20.8206C10.0558 20.9903 9.77775 21.1001 9.4857 21.1407C9.19365 21.1813 8.89609 21.1516 8.61793 21.054C4.44108 19.5854 1.84612 16.1008 1.84612 11.9606C1.84598 9.29448 2.90131 6.73603 4.78284 4.84106C6.66438 2.94608 9.22011 1.86766 11.8948 1.84009H11.9986C14.6734 1.85045 17.237 2.90824 19.1364 4.78534C21.0359 6.66244 22.119 9.20845 22.1523 11.8743C22.1592 12.6615 22.0748 13.4468 21.9008 14.2147H21.8962ZM13.3844 5.98028C13.3844 6.25323 13.3032 6.52005 13.151 6.747C12.9989 6.97395 12.7827 7.15084 12.5297 7.2553C12.2766 7.35975 11.9983 7.38708 11.7297 7.33383C11.4611 7.28058 11.2144 7.14914 11.0207 6.95614C10.8271 6.76313 10.6952 6.51723 10.6418 6.24952C10.5884 5.98181 10.6158 5.70433 10.7206 5.45215C10.8254 5.19998 11.0029 4.98444 11.2306 4.8328C11.4582 4.68116 11.7259 4.60022 11.9998 4.60022C12.367 4.60022 12.7192 4.74562 12.9788 5.00443C13.2385 5.26324 13.3844 5.61427 13.3844 5.98028ZM8.30755 8.74041C8.30755 9.01336 8.22634 9.28018 8.0742 9.50713C7.92206 9.73408 7.70582 9.91097 7.45282 10.0154C7.19982 10.1199 6.92142 10.1472 6.65284 10.094C6.38425 10.0407 6.13754 9.90927 5.9439 9.71626C5.75026 9.52326 5.61839 9.27735 5.56497 9.00965C5.51154 8.74194 5.53896 8.46446 5.64376 8.21228C5.74856 7.96011 5.92602 7.74457 6.15372 7.59293C6.38141 7.44129 6.64911 7.36035 6.92296 7.36035C7.29017 7.36035 7.64235 7.50575 7.90201 7.76456C8.16167 8.02337 8.30755 8.37439 8.30755 8.74041ZM8.30755 15.1807C8.30755 15.4537 8.22634 15.7205 8.0742 15.9474C7.92206 16.1744 7.70582 16.3513 7.45282 16.4557C7.19982 16.5602 6.92142 16.5875 6.65284 16.5343C6.38425 16.481 6.13754 16.3496 5.9439 16.1566C5.75026 15.9636 5.61839 15.7177 5.56497 15.4499C5.51154 15.1822 5.53896 14.9048 5.64376 14.6526C5.74856 14.4004 5.92602 14.1849 6.15372 14.0332C6.38141 13.8816 6.64911 13.8006 6.92296 13.8006C7.29017 13.8006 7.64235 13.946 7.90201 14.2049C8.16167 14.4637 8.30755 14.8147 8.30755 15.1807ZM18.4612 8.74041C18.4612 9.01336 18.38 9.28018 18.2279 9.50713C18.0757 9.73408 17.8595 9.91097 17.6065 10.0154C17.3535 10.1199 17.0751 10.1472 16.8065 10.094C16.5379 10.0407 16.2912 9.90927 16.0976 9.71626C15.9039 9.52326 15.7721 9.27735 15.7186 9.00965C15.6652 8.74194 15.6926 8.46446 15.7974 8.21228C15.9022 7.96011 16.0797 7.74457 16.3074 7.59293C16.5351 7.44129 16.8028 7.36035 17.0766 7.36035C17.4438 7.36035 17.796 7.50575 18.0557 7.76456C18.3153 8.02337 18.4612 8.37439 18.4612 8.74041Z" fill="#0ACBFC"/>
</svg>
