<svg width="24" height="24" viewBox="0 0 24 24" fill="none" xmlns="http://www.w3.org/2000/svg">
<g clip-path="url(#clip0_361_594)">
<path d="M12 0C9.62663 0 7.30655 0.703788 5.33316 2.02236C3.35977 3.34094 1.8217 5.21508 0.913451 7.4078C0.00519941 9.60051 -0.232441 12.0133 0.230582 14.3411C0.693605 16.6689 1.83649 18.807 3.51472 20.4853C5.19295 22.1635 7.33115 23.3064 9.65892 23.7694C11.9867 24.2324 14.3995 23.9948 16.5922 23.0865C18.7849 22.1783 20.6591 20.6402 21.9776 18.6668C23.2962 16.6934 24 14.3734 24 12C23.9966 8.81843 22.7313 5.76814 20.4816 3.51843C18.2319 1.26872 15.1816 0.00335979 12 0ZM22.1538 12C22.1549 13.3027 21.9041 14.5933 21.4154 15.8008L16.2577 12.6288C16.0384 12.4935 15.7931 12.4059 15.5377 12.3715L12.9046 12.0162C12.5418 11.9688 12.1731 12.0297 11.8447 12.191C11.5163 12.3523 11.2428 12.607 11.0585 12.9231H10.0523L9.61385 12.0162C9.49263 11.7636 9.31524 11.5422 9.09524 11.3688C8.87524 11.1954 8.61848 11.0746 8.34462 11.0158L7.42154 10.8162L8.32385 9.23077H10.2519C10.5639 9.23016 10.8707 9.15078 11.1438 9L12.5573 8.22C12.6815 8.15078 12.7976 8.06796 12.9035 7.97308L16.0085 5.16461C16.3198 4.88563 16.5267 4.50886 16.5951 4.09647C16.6634 3.68407 16.5892 3.26069 16.3846 2.89615L16.3431 2.82115C18.0805 3.645 19.5487 4.94468 20.5773 6.56937C21.6058 8.19406 22.1525 10.0771 22.1538 12ZM13.7665 2.00077L14.7692 3.79615L11.6642 6.60461L10.2519 7.38461H8.32385C7.99932 7.38414 7.6804 7.46921 7.39923 7.63127C7.11806 7.79333 6.88458 8.02664 6.72231 8.30769L5.715 10.065L4.54385 6.945L5.80616 3.96C6.92347 3.09668 8.2088 2.47626 9.57979 2.13848C10.9508 1.8007 12.3772 1.75301 13.7677 1.99846L13.7665 2.00077ZM1.84616 12C1.84462 10.4908 2.18133 9.00042 2.83154 7.63846L4.14 11.1312C4.24905 11.4203 4.42894 11.6775 4.6632 11.8791C4.89745 12.0807 5.17857 12.2203 5.48077 12.285L7.95347 12.8169L8.39308 13.7308C8.54565 14.0416 8.78209 14.3035 9.0757 14.487C9.36931 14.6705 9.70838 14.7683 10.0546 14.7692H10.2254L9.39116 16.6419C9.24417 16.9717 9.19709 17.3373 9.25574 17.6935C9.3144 18.0497 9.47621 18.3809 9.72116 18.6462L9.73731 18.6623L12 20.9931L11.7762 22.1469C9.12442 22.0852 6.6018 20.9896 4.74661 19.0939C2.89141 17.1982 1.85056 14.6524 1.84616 12ZM13.6823 22.0131L13.8127 21.3427C13.8663 21.0579 13.8524 20.7645 13.7723 20.486C13.6922 20.2075 13.5479 19.9516 13.3512 19.7388C13.3455 19.7338 13.3401 19.7284 13.335 19.7227L11.0769 17.3931L12.6577 13.8462L15.2908 14.2015L20.5662 17.4462C19.8019 18.6464 18.7943 19.673 17.6086 20.4597C16.4228 21.2463 15.0853 21.7755 13.6823 22.0131Z" fill="#BC50FF"/>
</g>
<defs>
<clipPath id="clip0_361_594">
<rect width="24" height="24" fill="white"/>
</clipPath>
</defs>
</svg>
