<svg width="24" height="24" viewBox="0 0 24 24" fill="none" xmlns="http://www.w3.org/2000/svg">
<path d="M15.198 3C13.5633 3.00128 11.9612 3.46753 10.5709 4.34658C9.18055 5.22564 8.05678 6.48285 7.32527 7.97761C6.45503 7.84784 5.56798 7.90281 4.71944 8.13908C3.87089 8.37536 3.07907 8.78787 2.39335 9.3509C1.70762 9.91393 1.14272 10.6154 0.733859 11.4115C0.325001 12.2077 0.0809648 13.0814 0.0169708 13.9783C-0.0470233 14.8751 0.070398 15.7758 0.361911 16.6242C0.653423 17.4726 1.11277 18.2505 1.71131 18.9093C2.30985 19.5681 3.03473 20.0938 3.84074 20.4535C4.64676 20.8132 5.51662 20.9992 6.39606 21H15.198C17.5325 21 19.7713 20.0518 21.422 18.364C23.0727 16.6761 24 14.3869 24 12C24 9.61305 23.0727 7.32387 21.422 5.63604C19.7713 3.94821 17.5325 3 15.198 3ZM15.198 19.3636H6.39606C5.12273 19.3636 3.90156 18.8464 3.00118 17.9258C2.10081 17.0052 1.59498 15.7565 1.59498 14.4545C1.59498 13.1526 2.10081 11.9039 3.00118 10.9833C3.90156 10.0627 5.12273 9.54545 6.39606 9.54545C6.50608 9.54545 6.61611 9.54545 6.72513 9.5567C6.5063 10.3518 6.39557 11.174 6.39606 12C6.39606 12.217 6.48036 12.4251 6.63042 12.5785C6.78049 12.732 6.98402 12.8182 7.19624 12.8182C7.40846 12.8182 7.61199 12.732 7.76205 12.5785C7.91211 12.4251 7.99642 12.217 7.99642 12C7.99642 10.5436 8.41878 9.11993 9.21011 7.90898C10.0014 6.69804 11.1262 5.75422 12.4421 5.19689C13.758 4.63955 15.206 4.49373 16.603 4.77785C18 5.06198 19.2832 5.7633 20.2903 6.79312C21.2975 7.82295 21.9834 9.13502 22.2613 10.5634C22.5391 11.9918 22.3965 13.4724 21.8515 14.8179C21.3064 16.1635 20.3833 17.3135 19.199 18.1226C18.0147 18.9318 16.6224 19.3636 15.198 19.3636ZM18.9649 9.78477C19.0393 9.86076 19.0983 9.951 19.1386 10.0503C19.1788 10.1496 19.1996 10.2561 19.1996 10.3636C19.1996 10.4712 19.1788 10.5776 19.1386 10.677C19.0983 10.7763 19.0393 10.8665 18.9649 10.9425L14.1638 15.8516C14.0895 15.9277 14.0012 15.988 13.9041 16.0292C13.807 16.0704 13.7028 16.0916 13.5977 16.0916C13.4925 16.0916 13.3884 16.0704 13.2912 16.0292C13.1941 15.988 13.1059 15.9277 13.0315 15.8516L10.631 13.397C10.4809 13.2435 10.3965 13.0353 10.3965 12.8182C10.3965 12.6011 10.4809 12.3928 10.631 12.2393C10.7812 12.0858 10.9848 11.9995 11.1971 11.9995C11.4095 11.9995 11.6131 12.0858 11.7633 12.2393L13.5977 14.116L17.8326 9.78477C17.9069 9.7087 17.9952 9.64835 18.0923 9.60718C18.1895 9.566 18.2936 9.54481 18.3987 9.54481C18.5039 9.54481 18.608 9.566 18.7052 9.60718C18.8023 9.64835 18.8906 9.7087 18.9649 9.78477Z" fill="#19CAAA"/>
</svg>
