<svg width="24" height="24" viewBox="0 0 24 24" fill="none" xmlns="http://www.w3.org/2000/svg">
<path d="M23 15.3333C23 15.5875 22.8992 15.8313 22.7198 16.011C22.5405 16.1907 22.2972 16.2917 22.0435 16.2917H19.1739V18.2083H21.087C21.3406 18.2083 21.5839 18.3093 21.7633 18.489C21.9427 18.6687 22.0435 18.9125 22.0435 19.1667C22.0435 19.4208 21.9427 19.6646 21.7633 19.8443C21.5839 20.024 21.3406 20.125 21.087 20.125H19.1739V22.0417C19.1739 22.2958 19.0731 22.5396 18.8938 22.7193C18.7144 22.899 18.4711 23 18.2174 23C17.9637 23 17.7204 22.899 17.541 22.7193C17.3616 22.5396 17.2609 22.2958 17.2609 22.0417V15.3333C17.2609 15.0792 17.3616 14.8354 17.541 14.6557C17.7204 14.476 17.9637 14.375 18.2174 14.375H22.0435C22.2972 14.375 22.5405 14.476 22.7198 14.6557C22.8992 14.8354 23 15.0792 23 15.3333ZM7.21739 17.7292C7.21739 18.6187 6.86467 19.4719 6.23684 20.1009C5.609 20.7299 4.75746 21.0833 3.86957 21.0833H2.91304V22.0417C2.91304 22.2958 2.81227 22.5396 2.63288 22.7193C2.4535 22.899 2.21021 23 1.95652 23C1.70284 23 1.45954 22.899 1.28016 22.7193C1.10078 22.5396 1 22.2958 1 22.0417V15.3333C1 15.0792 1.10078 14.8354 1.28016 14.6557C1.45954 14.476 1.70284 14.375 1.95652 14.375H3.86957C4.75746 14.375 5.609 14.7284 6.23684 15.3574C6.86467 15.9864 7.21739 16.8396 7.21739 17.7292ZM5.30435 17.7292C5.30435 17.3479 5.15318 16.9823 4.88411 16.7127C4.61504 16.4431 4.25009 16.2917 3.86957 16.2917H2.91304V19.1667H3.86957C4.25009 19.1667 4.61504 19.0152 4.88411 18.7456C5.15318 18.476 5.30435 18.1104 5.30435 17.7292ZM15.8261 18.6875C15.8261 19.8312 15.3726 20.9281 14.5654 21.7369C13.7582 22.5456 12.6633 23 11.5217 23H9.6087C9.35501 23 9.11172 22.899 8.93233 22.7193C8.75295 22.5396 8.65217 22.2958 8.65217 22.0417V15.3333C8.65217 15.0792 8.75295 14.8354 8.93233 14.6557C9.11172 14.476 9.35501 14.375 9.6087 14.375H11.5217C12.6633 14.375 13.7582 14.8294 14.5654 15.6381C15.3726 16.4469 15.8261 17.5438 15.8261 18.6875ZM13.913 18.6875C13.913 18.0521 13.6611 17.4427 13.2126 16.9934C12.7642 16.5441 12.156 16.2917 11.5217 16.2917H10.5652V21.0833H11.5217C12.156 21.0833 12.7642 20.8309 13.2126 20.3816C13.6611 19.9323 13.913 19.3229 13.913 18.6875ZM1 10.5417V1.91667C1 1.40834 1.20155 0.920824 1.56032 0.561379C1.91908 0.201934 2.40567 2.96315e-07 2.91304 2.96315e-07H14.3913C14.517 -9.86948e-05 14.6414 0.024606 14.7575 0.0727029C14.8736 0.1208 14.9791 0.191347 15.068 0.280313L21.7637 6.98865C21.8525 7.07771 21.9229 7.18343 21.9709 7.29977C22.0189 7.41611 22.0436 7.54078 22.0435 7.66667V10.5417C22.0435 10.7958 21.9427 11.0396 21.7633 11.2193C21.5839 11.399 21.3406 11.5 21.087 11.5C20.8333 11.5 20.59 11.399 20.4106 11.2193C20.2312 11.0396 20.1304 10.7958 20.1304 10.5417V8.625H14.3913C14.1376 8.625 13.8943 8.52403 13.7149 8.34431C13.5356 8.16459 13.4348 7.92083 13.4348 7.66667V1.91667H2.91304V10.5417C2.91304 10.7958 2.81227 11.0396 2.63288 11.2193C2.4535 11.399 2.21021 11.5 1.95652 11.5C1.70284 11.5 1.45954 11.399 1.28016 11.2193C1.10078 11.0396 1 10.7958 1 10.5417ZM15.3478 6.70833H18.7782L15.3478 3.27151V6.70833Z" fill="#BC50FF"/>
</svg>
