<svg width="24" height="24" viewBox="0 0 24 24" fill="none" xmlns="http://www.w3.org/2000/svg">
<path d="M23.5856 16.7616C23.4589 16.682 23.314 16.6357 23.1644 16.6268C23.0148 16.6179 22.8654 16.6468 22.7301 16.7107C22.3914 16.8701 22.0177 16.9417 21.6438 16.9189C21.2698 16.896 20.9078 16.7794 20.5913 16.5799C20.2747 16.3804 20.014 16.1045 19.8334 15.7779C19.6527 15.4512 19.558 15.0844 19.558 14.7115C19.558 14.3386 19.6527 13.9718 19.8334 13.6451C20.014 13.3185 20.2747 13.0426 20.5913 12.8431C20.9078 12.6436 21.2698 12.527 21.6438 12.5041C22.0177 12.4812 22.3914 12.5528 22.7301 12.7122C22.8656 12.7762 23.0152 12.8051 23.1649 12.7961C23.3146 12.787 23.4596 12.7405 23.5863 12.6607C23.7131 12.5809 23.8175 12.4704 23.8898 12.3397C23.9621 12.2089 24 12.062 24 11.9128V7.19222C24 6.72299 23.8127 6.27297 23.4793 5.94118C23.146 5.60938 22.6938 5.42298 22.2223 5.42298H18.1982C18.2147 5.27612 18.2229 5.12844 18.2226 4.98067C18.2218 4.43698 18.1094 3.89919 17.8924 3.40026C17.6754 2.90132 17.3583 2.45176 16.9605 2.07911C16.4097 1.56428 15.7237 1.21525 14.9818 1.07244C14.24 0.929628 13.4726 0.998884 12.7687 1.27218C12.0648 1.54548 11.453 2.01165 11.0043 2.6167C10.5555 3.22174 10.2882 3.94092 10.2332 4.69095C10.2161 4.93493 10.2213 5.17994 10.2487 5.42298H6.22343C5.75196 5.42298 5.29981 5.60938 4.96643 5.94118C4.63306 6.27297 4.44577 6.72299 4.44577 7.19222V10.755C4.29821 10.7386 4.14984 10.7304 4.00136 10.7307C3.4551 10.7316 2.91477 10.8434 2.41347 11.0594C1.91217 11.2754 1.46046 11.591 1.086 11.9869C0.708855 12.3834 0.418453 12.8534 0.233144 13.3673C0.0478358 13.8812 -0.0283492 14.4278 0.00940418 14.9725C0.0730977 15.9316 0.482568 16.8356 1.16252 17.5182C1.84246 18.2008 2.74717 18.6162 3.71026 18.6879C3.95539 18.7054 4.20161 18.7002 4.44577 18.6724V22.2308C4.44577 22.7 4.63306 23.15 4.96643 23.4818C5.29981 23.8136 5.75196 24 6.22343 24H22.2223C22.6938 24 23.146 23.8136 23.4793 23.4818C23.8127 23.15 24 22.7 24 22.2308V17.5102C24.0001 17.3607 23.9621 17.2137 23.8897 17.0828C23.8172 16.9519 23.7126 16.8414 23.5856 16.7616ZM22.2223 22.2308H6.22343V17.5102C6.22348 17.3609 6.18557 17.2141 6.11324 17.0833C6.04091 16.9525 5.9365 16.8421 5.80975 16.7623C5.68299 16.6825 5.53801 16.6359 5.3883 16.6269C5.23858 16.6179 5.08901 16.6467 4.95351 16.7107C4.61483 16.8701 4.24115 16.9417 3.86721 16.9189C3.49326 16.896 3.1312 16.7794 2.81468 16.5799C2.49816 16.3804 2.23746 16.1045 2.05681 15.7779C1.87616 15.4512 1.78143 15.0844 1.78143 14.7115C1.78143 14.3386 1.87616 13.9718 2.05681 13.6451C2.23746 13.3185 2.49816 13.0426 2.81468 12.8431C3.1312 12.6436 3.49326 12.527 3.86721 12.5041C4.24115 12.4812 4.61483 12.5528 4.95351 12.7122C5.08901 12.7762 5.23858 12.8051 5.3883 12.7961C5.53801 12.787 5.68299 12.7405 5.80975 12.6607C5.9365 12.5809 6.04091 12.4704 6.11324 12.3397C6.18557 12.2089 6.22348 12.062 6.22343 11.9128V7.19222H11.4109C11.5608 7.19227 11.7084 7.15454 11.8398 7.08255C11.9712 7.01056 12.0821 6.90665 12.1623 6.78049C12.2425 6.65434 12.2893 6.51004 12.2983 6.36104C12.3074 6.21204 12.2784 6.06317 12.2141 5.92832C12.054 5.59124 11.982 5.21932 12.005 4.84715C12.028 4.47498 12.1451 4.11463 12.3456 3.79961C12.546 3.48459 12.8232 3.22512 13.1515 3.04533C13.4797 2.86553 13.8482 2.77126 14.2229 2.77126C14.5975 2.77126 14.9661 2.86553 15.2943 3.04533C15.6225 3.22512 15.8998 3.48459 16.1002 3.79961C16.3006 4.11463 16.4178 4.47498 16.4408 4.84715C16.4638 5.21932 16.3918 5.59124 16.2316 5.92832C16.1673 6.06317 16.1384 6.21204 16.1474 6.36104C16.1565 6.51004 16.2033 6.65434 16.2835 6.78049C16.3636 6.90665 16.4746 7.01056 16.606 7.08255C16.7374 7.15454 16.8849 7.19227 17.0349 7.19222H22.2223V10.7561C21.9782 10.7283 21.732 10.7231 21.4868 10.7406C20.4524 10.8136 19.4868 11.2835 18.7938 12.0514C18.1008 12.8192 17.7345 13.825 17.7723 14.8564C17.81 15.8879 18.2489 16.8645 18.9962 17.5801C19.7435 18.2957 20.7409 18.6945 21.7779 18.6923C21.9264 18.6925 22.0748 18.6844 22.2223 18.668V22.2308Z" fill="#BC50FF"/>
</svg>
