<svg width="56" height="56" viewBox="0 0 56 56" fill="none" xmlns="http://www.w3.org/2000/svg">
<mask id="mask0_502_2542" style="mask-type:alpha" maskUnits="userSpaceOnUse" x="0" y="0" width="56" height="56">
<rect width="56" height="56" fill="#D9D9D9"/>
</mask>
<g mask="url(#mask0_502_2542)">
<path d="M52.3349 64.7091L-8.72227 38.4169C-10.3046 37.6933 -11.0198 35.8388 -10.3329 34.2402L0.0444232 10.0866C0.423518 9.20421 1.10471 8.48842 1.97091 8.07372C3.97957 7.11206 7.8437 5.28608 10.7174 4.07494C13.7899 2.78002 17.8796 1.14618 20.0633 0.279856C21.0432 -0.108862 22.1273 -0.0944597 23.0902 0.334478C31.729 4.18264 60.856 16.1547 71.907 21.4379C73.4667 22.1835 74.1268 24.0305 73.4189 25.6077L56.5886 63.1079C55.8608 64.7296 53.9515 65.4483 52.3349 64.7091Z" fill="url(#paint0_linear_502_2542)"/>
<g filter="url(#filter0_d_502_2542)">
<path d="M-0.0234374 10.2308C0.933515 8.39975 3.15199 7.5834 5.08553 8.40331L11.3416 11.0561C12.958 11.7416 14.8249 10.9977 15.5271 9.38852L18.4748 2.6335C19.2849 0.77693 21.3345 -0.15719 23.2327 0.381789C23.1881 0.362695 23.1435 0.343567 23.0987 0.324399C22.1297 -0.0906304 21.0377 -0.109355 20.0578 0.27935C17.874 1.14566 13.7843 2.77948 10.7118 4.07441C7.62581 5.37501 3.90216 7.13819 1.95711 8.07345C1.09551 8.48774 0.418975 9.20108 0.0415845 10.0795L-0.0234374 10.2308Z" fill="url(#paint1_linear_502_2542)"/>
</g>
<path d="M41.8785 21.0823L36.3696 34.767L31.0334 21.0823H26.1406L34.0542 39.5359H38.5121L46.4257 21.0823H41.8785Z" fill="white"/>
<path d="M56.2219 39.7778C61.9584 39.7778 66.0707 35.8383 66.0707 30.3091C66.0707 24.78 61.9584 20.875 56.2219 20.875C50.5545 20.875 46.4076 24.78 46.4076 30.3091C46.4076 35.8383 50.5545 39.7778 56.2219 39.7778ZM56.2219 36.0802C53.1117 36.0802 50.7619 33.834 50.7619 30.3091C50.7619 26.7843 53.1117 24.5381 56.2219 24.5381C59.3666 24.5381 61.7165 26.7843 61.7165 30.3091C61.7165 33.834 59.3666 36.0802 56.2219 36.0802Z" fill="white"/>
<path d="M7.84888 16.5534C7.84888 16.9809 7.76451 17.3802 7.59578 17.7515C7.43829 18.1227 7.21893 18.4489 6.93771 18.7301C6.65648 19.0001 6.32463 19.2195 5.94216 19.3882C5.57094 19.5457 5.1716 19.6244 4.74413 19.6244C4.31666 19.6244 3.9117 19.5457 3.52923 19.3882C3.15801 19.2195 2.83178 19.0001 2.55055 18.7301C2.28058 18.4489 2.06122 18.1227 1.89248 17.7515C1.73499 17.3802 1.65625 16.9809 1.65625 16.5534C1.65625 16.1372 1.73499 15.7435 1.89248 15.3723C2.06122 14.9898 2.28058 14.6636 2.55055 14.3936C2.83178 14.1124 3.15801 13.893 3.52923 13.7355C3.9117 13.5668 4.31666 13.4824 4.74413 13.4824C5.1716 13.4824 5.57094 13.5668 5.94216 13.7355C6.32463 13.893 6.65648 14.1124 6.93771 14.3936C7.21893 14.6636 7.43829 14.9898 7.59578 15.3723C7.76451 15.7435 7.84888 16.1372 7.84888 16.5534ZM7.05582 39.5354H2.41556V21.4637H7.05582V39.5354Z" fill="white"/>
<path d="M14.4978 39.5354H9.89127V21.4637H11.0049L12.5236 23.2185C13.266 22.5436 14.1041 22.0261 15.0377 21.6661C15.9827 21.2949 16.967 21.1093 17.9906 21.1093C19.093 21.1093 20.1336 21.323 21.1123 21.7505C22.0909 22.1667 22.9459 22.7461 23.677 23.4885C24.4082 24.2197 24.9819 25.0802 25.3982 26.0702C25.8256 27.0488 26.0394 28.095 26.0394 29.2087V39.5354H21.4329V29.2087C21.4329 28.7362 21.3429 28.2919 21.1629 27.8757C20.9829 27.4482 20.7354 27.077 20.4204 26.762C20.1055 26.447 19.7399 26.1995 19.3236 26.0196C18.9074 25.8396 18.4631 25.7496 17.9906 25.7496C17.5069 25.7496 17.0513 25.8396 16.6239 26.0196C16.1964 26.1995 15.8252 26.447 15.5102 26.762C15.1952 27.077 14.9477 27.4482 14.7678 27.8757C14.5878 28.2919 14.4978 28.7362 14.4978 29.2087V39.5354Z" fill="white"/>
</g>
<defs>
<filter id="filter0_d_502_2542" x="-4.02344" y="0" width="47.9297" height="19.3115" filterUnits="userSpaceOnUse" color-interpolation-filters="sRGB">
<feFlood flood-opacity="0" result="BackgroundImageFix"/>
<feColorMatrix in="SourceAlpha" type="matrix" values="0 0 0 0 0 0 0 0 0 0 0 0 0 0 0 0 0 0 127 0" result="hardAlpha"/>
<feOffset dy="4"/>
<feGaussianBlur stdDeviation="2"/>
<feComposite in2="hardAlpha" operator="out"/>
<feColorMatrix type="matrix" values="0 0 0 0 0 0 0 0 0 0 0 0 0 0 0 0 0 0 0.1 0"/>
<feBlend mode="normal" in2="BackgroundImageFix" result="effect1_dropShadow_502_2542"/>
<feBlend mode="normal" in="SourceGraphic" in2="effect1_dropShadow_502_2542" result="shape"/>
</filter>
<linearGradient id="paint0_linear_502_2542" x1="23.9997" y1="0.695578" x2="23.9997" y2="53.9887" gradientUnits="userSpaceOnUse">
<stop stop-color="#5B5B5B"/>
<stop offset="1" stop-color="#1C1C1C"/>
</linearGradient>
<linearGradient id="paint1_linear_502_2542" x1="12.7182" y1="4.38853" x2="14.8346" y2="9.51987" gradientUnits="userSpaceOnUse">
<stop stop-color="#FFC664"/>
<stop offset="0.229167" stop-color="#FFDDA4"/>
<stop offset="0.255208" stop-color="#FFDDA4"/>
<stop offset="1" stop-color="#FFA712"/>
</linearGradient>
</defs>
</svg>
