<svg width="302" height="106" viewBox="0 0 302 106" fill="none" xmlns="http://www.w3.org/2000/svg">
<path d="M101.56 49.824L90.6162 75.168L79.9922 49.824H71.6722L86.3282 84H94.5842L109.24 49.824H101.56ZM127.383 84.448C138.007 84.448 145.623 77.152 145.623 66.912C145.623 56.672 138.007 49.44 127.383 49.44C116.887 49.44 109.207 56.672 109.207 66.912C109.207 77.152 116.887 84.448 127.383 84.448ZM127.383 77.6C121.623 77.6 117.271 73.44 117.271 66.912C117.271 60.384 121.623 56.224 127.383 56.224C133.207 56.224 137.559 60.384 137.559 66.912C137.559 73.44 133.207 77.6 127.383 77.6ZM170.297 76.448C169.081 77.408 167.481 77.856 165.817 77.856C162.745 77.856 161.081 76.064 161.081 72.736V56.48H170.233V50.08H161.081V42.272H153.081V50.08H147.449V56.48H153.081V72.928C153.081 80.48 157.369 84.448 164.857 84.448C167.737 84.448 170.617 83.68 172.537 82.144L170.297 76.448ZM192.073 84.448C202.697 84.448 210.313 77.152 210.313 66.912C210.313 56.672 202.697 49.44 192.073 49.44C181.577 49.44 173.897 56.672 173.897 66.912C173.897 77.152 181.577 84.448 192.073 84.448ZM192.073 77.6C186.313 77.6 181.961 73.44 181.961 66.912C181.961 60.384 186.313 56.224 192.073 56.224C197.897 56.224 202.249 60.384 202.249 66.912C202.249 73.44 197.897 77.6 192.073 77.6ZM232.043 84.448C242.667 84.448 250.283 77.152 250.283 66.912C250.283 56.672 242.667 49.44 232.043 49.44C221.547 49.44 213.867 56.672 213.867 66.912C213.867 77.152 221.547 84.448 232.043 84.448ZM232.043 77.6C226.283 77.6 221.931 73.44 221.931 66.912C221.931 60.384 226.283 56.224 232.043 56.224C237.867 56.224 242.219 60.384 242.219 66.912C242.219 73.44 237.867 77.6 232.043 77.6ZM256.653 84H264.653V36.512H256.653V84ZM284.433 84.448C294.033 84.448 299.921 80.288 299.921 73.888C299.921 60.512 278.801 66.656 278.801 59.744C278.801 57.504 281.105 55.904 285.969 55.904C289.233 55.904 292.497 56.544 295.761 58.464L298.833 52.384C295.761 50.528 290.577 49.44 286.033 49.44C276.817 49.44 270.993 53.664 270.993 60.128C270.993 73.76 292.113 67.616 292.113 74.144C292.113 76.512 290.001 77.92 284.945 77.92C280.657 77.92 276.049 76.512 273.041 74.528L269.969 80.608C273.041 82.784 278.737 84.448 284.433 84.448Z" fill="#2A324B"/>
<path d="M56.3847 103.214L7.52124 85.4293C3.36942 83.9181 1.22872 79.3274 2.73986 75.1756L20.8669 25.3719L54.5329 8.89248L86.4802 20.5203C90.632 22.0315 92.775 26.623 91.2638 30.7749L66.6384 98.4327C65.1272 102.585 60.5365 104.725 56.3847 103.214Z" fill="#2A324B"/>
<g filter="url(#filter0_d_361_603)">
<path d="M20.8647 25.3716L54.5312 8.89246L47.3488 28.626C46.2155 31.7399 42.7724 33.3454 39.6586 32.212L20.8647 25.3716Z" fill="url(#paint0_linear_361_603)"/>
</g>
<mask id="mask0_361_603" style="mask-type:alpha" maskUnits="userSpaceOnUse" x="2" y="8" width="90" height="96">
<path d="M56.3808 103.214L7.51733 85.4294C3.36551 83.9183 1.22481 79.3275 2.73595 75.1757L20.863 25.372L54.529 8.8926L86.4763 20.5205C90.6281 22.0316 92.7711 26.6232 91.2599 30.775L66.6345 98.4329C65.1233 102.585 60.5326 104.725 56.3808 103.214Z" fill="#2A324B"/>
</mask>
<g mask="url(#mask0_361_603)">
<path d="M101.56 49.824L90.6162 75.168L79.9922 49.824H71.6722L86.3282 84H94.5842L109.24 49.824H101.56ZM127.383 84.448C138.007 84.448 145.623 77.152 145.623 66.912C145.623 56.672 138.007 49.44 127.383 49.44C116.887 49.44 109.207 56.672 109.207 66.912C109.207 77.152 116.887 84.448 127.383 84.448ZM127.383 77.6C121.623 77.6 117.271 73.44 117.271 66.912C117.271 60.384 121.623 56.224 127.383 56.224C133.207 56.224 137.559 60.384 137.559 66.912C137.559 73.44 133.207 77.6 127.383 77.6ZM170.297 76.448C169.081 77.408 167.481 77.856 165.817 77.856C162.745 77.856 161.081 76.064 161.081 72.736V56.48H170.233V50.08H161.081V42.272H153.081V50.08H147.449V56.48H153.081V72.928C153.081 80.48 157.369 84.448 164.857 84.448C167.737 84.448 170.617 83.68 172.537 82.144L170.297 76.448ZM192.073 84.448C202.697 84.448 210.313 77.152 210.313 66.912C210.313 56.672 202.697 49.44 192.073 49.44C181.577 49.44 173.897 56.672 173.897 66.912C173.897 77.152 181.577 84.448 192.073 84.448ZM192.073 77.6C186.313 77.6 181.961 73.44 181.961 66.912C181.961 60.384 186.313 56.224 192.073 56.224C197.897 56.224 202.249 60.384 202.249 66.912C202.249 73.44 197.897 77.6 192.073 77.6ZM232.043 84.448C242.667 84.448 250.283 77.152 250.283 66.912C250.283 56.672 242.667 49.44 232.043 49.44C221.547 49.44 213.867 56.672 213.867 66.912C213.867 77.152 221.547 84.448 232.043 84.448ZM232.043 77.6C226.283 77.6 221.931 73.44 221.931 66.912C221.931 60.384 226.283 56.224 232.043 56.224C237.867 56.224 242.219 60.384 242.219 66.912C242.219 73.44 237.867 77.6 232.043 77.6ZM256.653 84H264.653V36.512H256.653V84ZM284.433 84.448C294.033 84.448 299.921 80.288 299.921 73.888C299.921 60.512 278.801 66.656 278.801 59.744C278.801 57.504 281.105 55.904 285.969 55.904C289.233 55.904 292.497 56.544 295.761 58.464L298.833 52.384C295.761 50.528 290.577 49.44 286.033 49.44C276.817 49.44 270.993 53.664 270.993 60.128C270.993 73.76 292.113 67.616 292.113 74.144C292.113 76.512 290.001 77.92 284.945 77.92C280.657 77.92 276.049 76.512 273.041 74.528L269.969 80.608C273.041 82.784 278.737 84.448 284.433 84.448Z" fill="white"/>
<path d="M36.3047 41.4375C36.3047 42.2292 36.1484 42.9688 35.8359 43.6562C35.5443 44.3438 35.138 44.9479 34.6172 45.4688C34.0964 45.9688 33.4818 46.375 32.7734 46.6875C32.0859 46.9792 31.3464 47.125 30.5547 47.125C29.763 47.125 29.013 46.9792 28.3047 46.6875C27.6172 46.375 27.013 45.9688 26.4922 45.4688C25.9922 44.9479 25.5859 44.3438 25.2734 43.6562C24.9818 42.9688 24.8359 42.2292 24.8359 41.4375C24.8359 40.6667 24.9818 39.9375 25.2734 39.25C25.5859 38.5417 25.9922 37.9375 26.4922 37.4375C27.013 36.9167 27.6172 36.5104 28.3047 36.2188C29.013 35.9062 29.763 35.75 30.5547 35.75C31.3464 35.75 32.0859 35.9062 32.7734 36.2188C33.4818 36.5104 34.0964 36.9167 34.6172 37.4375C35.138 37.9375 35.5443 38.5417 35.8359 39.25C36.1484 39.9375 36.3047 40.6667 36.3047 41.4375ZM34.8359 84H26.2422V50.5312H34.8359V84ZM48.6184 84H40.0872V50.5312H42.1497L44.9622 53.7812C46.3372 52.5312 47.8893 51.5729 49.6184 50.9062C51.3684 50.2188 53.1914 49.875 55.0872 49.875C57.1289 49.875 59.0559 50.2708 60.8684 51.0625C62.6809 51.8333 64.2643 52.9062 65.6184 54.2812C66.9726 55.6354 68.0351 57.2292 68.8059 59.0625C69.5976 60.875 69.9934 62.8125 69.9934 64.875V84H61.4622V64.875C61.4622 64 61.2955 63.1771 60.9622 62.4062C60.6289 61.6146 60.1705 60.9271 59.5872 60.3438C59.0039 59.7604 58.3268 59.3021 57.5559 58.9688C56.7851 58.6354 55.9622 58.4688 55.0872 58.4688C54.1914 58.4688 53.3476 58.6354 52.5559 58.9688C51.7643 59.3021 51.0768 59.7604 50.4934 60.3438C49.9101 60.9271 49.4518 61.6146 49.1184 62.4062C48.7851 63.1771 48.6184 64 48.6184 64.875V84ZM117.622 84L104.872 50.5312H114.591L121.903 71.4062L129.185 50.5312H138.935L126.185 84H117.622ZM172.248 66.9688C172.248 69.4688 171.801 71.8021 170.905 73.9688C170.009 76.1146 168.79 77.9792 167.248 79.5625C165.707 81.125 163.894 82.3646 161.811 83.2812C159.748 84.1771 157.53 84.625 155.155 84.625C152.801 84.625 150.582 84.1771 148.498 83.2812C146.436 82.3646 144.623 81.125 143.061 79.5625C141.519 77.9792 140.301 76.1146 139.405 73.9688C138.509 71.8021 138.061 69.4688 138.061 66.9688C138.061 64.4271 138.509 62.0729 139.405 59.9062C140.301 57.7396 141.519 55.875 143.061 54.3125C144.623 52.7292 146.436 51.4896 148.498 50.5938C150.582 49.6979 152.801 49.25 155.155 49.25C157.53 49.25 159.748 49.6771 161.811 50.5312C163.894 51.3646 165.707 52.5625 167.248 54.125C168.79 55.6667 170.009 57.5312 170.905 59.7188C171.801 61.8854 172.248 64.3021 172.248 66.9688ZM163.655 66.9688C163.655 65.5938 163.426 64.3542 162.967 63.25C162.53 62.125 161.926 61.1667 161.155 60.375C160.384 59.5625 159.478 58.9479 158.436 58.5312C157.415 58.0938 156.321 57.875 155.155 57.875C153.988 57.875 152.884 58.0938 151.842 58.5312C150.821 58.9479 149.926 59.5625 149.155 60.375C148.405 61.1667 147.811 62.125 147.373 63.25C146.936 64.3542 146.717 65.5938 146.717 66.9688C146.717 68.2604 146.936 69.4583 147.373 70.5625C147.811 71.6667 148.405 72.625 149.155 73.4375C149.926 74.25 150.821 74.8958 151.842 75.375C152.884 75.8333 153.988 76.0625 155.155 76.0625C156.321 76.0625 157.415 75.8438 158.436 75.4062C159.478 74.9688 160.384 74.3542 161.155 73.5625C161.926 72.7708 162.53 71.8125 162.967 70.6875C163.426 69.5625 163.655 68.3229 163.655 66.9688ZM192.218 84C190.156 84 188.218 83.6146 186.406 82.8438C184.593 82.0521 183 80.9792 181.625 79.625C180.271 78.25 179.198 76.6562 178.406 74.8438C177.635 73.0312 177.25 71.0938 177.25 69.0312V59.0938H173.093V50.5938H177.25V37.2188H185.75V50.5938H198.687V59.0938H185.75V69.0312C185.75 69.9271 185.916 70.7708 186.25 71.5625C186.583 72.3333 187.041 73.0104 187.625 73.5938C188.208 74.1771 188.896 74.6458 189.687 75C190.479 75.3333 191.323 75.5 192.218 75.5H198.687V84H192.218ZM234.563 66.9688C234.563 69.4688 234.116 71.8021 233.22 73.9688C232.324 76.1146 231.105 77.9792 229.563 79.5625C228.022 81.125 226.209 82.3646 224.126 83.2812C222.063 84.1771 219.845 84.625 217.47 84.625C215.116 84.625 212.897 84.1771 210.813 83.2812C208.751 82.3646 206.938 81.125 205.376 79.5625C203.834 77.9792 202.616 76.1146 201.72 73.9688C200.824 71.8021 200.376 69.4688 200.376 66.9688C200.376 64.4271 200.824 62.0729 201.72 59.9062C202.616 57.7396 203.834 55.875 205.376 54.3125C206.938 52.7292 208.751 51.4896 210.813 50.5938C212.897 49.6979 215.116 49.25 217.47 49.25C219.845 49.25 222.063 49.6771 224.126 50.5312C226.209 51.3646 228.022 52.5625 229.563 54.125C231.105 55.6667 232.324 57.5312 233.22 59.7188C234.116 61.8854 234.563 64.3021 234.563 66.9688ZM225.97 66.9688C225.97 65.5938 225.741 64.3542 225.282 63.25C224.845 62.125 224.241 61.1667 223.47 60.375C222.699 59.5625 221.793 58.9479 220.751 58.5312C219.73 58.0938 218.636 57.875 217.47 57.875C216.303 57.875 215.199 58.0938 214.157 58.5312C213.136 58.9479 212.241 59.5625 211.47 60.375C210.72 61.1667 210.126 62.125 209.688 63.25C209.251 64.3542 209.032 65.5938 209.032 66.9688C209.032 68.2604 209.251 69.4583 209.688 70.5625C210.126 71.6667 210.72 72.625 211.47 73.4375C212.241 74.25 213.136 74.8958 214.157 75.375C215.199 75.8333 216.303 76.0625 217.47 76.0625C218.636 76.0625 219.73 75.8438 220.751 75.4062C221.793 74.9688 222.699 74.3542 223.47 73.5625C224.241 72.7708 224.845 71.8125 225.282 70.6875C225.741 69.5625 225.97 68.3229 225.97 66.9688ZM270.346 66.9688C270.346 69.4688 269.898 71.8021 269.002 73.9688C268.106 76.1146 266.888 77.9792 265.346 79.5625C263.804 81.125 261.992 82.3646 259.908 83.2812C257.846 84.1771 255.627 84.625 253.252 84.625C250.898 84.625 248.679 84.1771 246.596 83.2812C244.533 82.3646 242.721 81.125 241.158 79.5625C239.617 77.9792 238.398 76.1146 237.502 73.9688C236.606 71.8021 236.158 69.4688 236.158 66.9688C236.158 64.4271 236.606 62.0729 237.502 59.9062C238.398 57.7396 239.617 55.875 241.158 54.3125C242.721 52.7292 244.533 51.4896 246.596 50.5938C248.679 49.6979 250.898 49.25 253.252 49.25C255.627 49.25 257.846 49.6771 259.908 50.5312C261.992 51.3646 263.804 52.5625 265.346 54.125C266.888 55.6667 268.106 57.5312 269.002 59.7188C269.898 61.8854 270.346 64.3021 270.346 66.9688ZM261.752 66.9688C261.752 65.5938 261.523 64.3542 261.065 63.25C260.627 62.125 260.023 61.1667 259.252 60.375C258.481 59.5625 257.575 58.9479 256.533 58.5312C255.513 58.0938 254.419 57.875 253.252 57.875C252.086 57.875 250.981 58.0938 249.94 58.5312C248.919 58.9479 248.023 59.5625 247.252 60.375C246.502 61.1667 245.908 62.125 245.471 63.25C245.033 64.3542 244.815 65.5938 244.815 66.9688C244.815 68.2604 245.033 69.4583 245.471 70.5625C245.908 71.6667 246.502 72.625 247.252 73.4375C248.023 74.25 248.919 74.8958 249.94 75.375C250.981 75.8333 252.086 76.0625 253.252 76.0625C254.419 76.0625 255.513 75.8438 256.533 75.4062C257.575 74.9688 258.481 74.3542 259.252 73.5625C260.023 72.7708 260.627 71.8125 261.065 70.6875C261.523 69.5625 261.752 68.3229 261.752 66.9688ZM282.378 84H273.785V37.2188H282.378V84ZM306.005 84H286.505V75.5H306.005C306.588 75.5 307.088 75.2917 307.505 74.875C307.921 74.4583 308.13 73.9583 308.13 73.375C308.13 72.7708 307.921 72.375 307.505 72.1875C307.088 72 306.588 71.9062 306.005 71.9062H297.13C295.651 71.9062 294.265 71.625 292.973 71.0625C291.682 70.5 290.557 69.7396 289.598 68.7812C288.64 67.8021 287.88 66.6667 287.317 65.375C286.776 64.0833 286.505 62.6979 286.505 61.2188C286.505 59.7396 286.776 58.3542 287.317 57.0625C287.88 55.7708 288.64 54.6458 289.598 53.6875C290.557 52.7292 291.682 51.9792 292.973 51.4375C294.265 50.875 295.651 50.5938 297.13 50.5938H314.411V59.0938H297.13C296.546 59.0938 296.046 59.3021 295.63 59.7188C295.213 60.1354 295.005 60.6354 295.005 61.2188C295.005 61.8229 295.213 62.3438 295.63 62.7812C296.046 63.1979 296.546 63.4062 297.13 63.4062H306.005C307.463 63.4062 308.838 63.6562 310.13 64.1562C311.421 64.6354 312.546 65.3125 313.505 66.1875C314.463 67.0625 315.223 68.1146 315.786 69.3438C316.348 70.5729 316.63 71.9167 316.63 73.375C316.63 74.8542 316.348 76.2396 315.786 77.5312C315.223 78.8021 314.463 79.9271 313.505 80.9062C312.546 81.8646 311.421 82.625 310.13 83.1875C308.838 83.7292 307.463 84 306.005 84Z" fill="white"/>
</g>
<defs>
<filter id="filter0_d_361_603" x="16.8633" y="8.89246" width="41.668" height="31.6831" filterUnits="userSpaceOnUse" color-interpolation-filters="sRGB">
<feFlood flood-opacity="0" result="BackgroundImageFix"/>
<feColorMatrix in="SourceAlpha" type="matrix" values="0 0 0 0 0 0 0 0 0 0 0 0 0 0 0 0 0 0 127 0" result="hardAlpha"/>
<feOffset dy="4"/>
<feGaussianBlur stdDeviation="2"/>
<feComposite in2="hardAlpha" operator="out"/>
<feColorMatrix type="matrix" values="0 0 0 0 0 0 0 0 0 0 0 0 0 0 0 0 0 0 0.1 0"/>
<feBlend mode="normal" in2="BackgroundImageFix" result="effect1_dropShadow_361_603"/>
<feBlend mode="normal" in="SourceGraphic" in2="effect1_dropShadow_361_603" result="shape"/>
</filter>
<linearGradient id="paint0_linear_361_603" x1="45.531" y1="5.61663" x2="33.4919" y2="38.6938" gradientUnits="userSpaceOnUse">
<stop stop-color="#FFB840"/>
<stop offset="1" stop-color="#FFA15E"/>
</linearGradient>
</defs>
</svg>
